<svg xmlns="http://www.w3.org/2000/svg" width="213.6" height="38.861" viewBox="0 0 213.6 38.861">
  <g id="Haltech_logo_PRIMARY" data-name="Haltech logo PRIMARY" transform="translate(0 0)">
    <path id="Path_256" data-name="Path 256" d="M22.182,475.059A6.105,6.105,0,0,1,16.742,472a6.525,6.525,0,0,1,.226-6.494l10.084-19.291a8.481,8.481,0,0,1-1.147-1.483c-.011-.019-.021-.038-.031-.058a5.831,5.831,0,0,1,.259-5.665,6.183,6.183,0,0,1,5.391-2.806H64.6a6.155,6.155,0,0,1,5.838,8.963H93.684c-.125-.2-.205-.356-.251-.447a5.833,5.833,0,0,1,.21-5.695,6.2,6.2,0,0,1,5.431-2.822l26.965.113a6.144,6.144,0,0,1,5.933,3.489,6.031,6.031,0,0,1-.249,5.471l59.377-.1a5.428,5.428,0,0,1-.33-.527,5.82,5.82,0,0,1,.264-5.658,6.2,6.2,0,0,1,5.4-2.79h13.037a6.153,6.153,0,0,1,5.839,8.956h5.672a9.107,9.107,0,0,1,7.209,4.075,9.418,9.418,0,0,1,.713,8.41l-6.834,12.909a7.638,7.638,0,0,1-6.728,4.506Z" transform="translate(-15.982 -436.198)" fill="none"/>
    <g id="Group_345" data-name="Group 345" transform="translate(5.369 5.303)">
      <path id="Path_257" data-name="Path 257" d="M144.962,472.323c-.252.474-.518,1.4.817,1.4H153.7s1.074,0,2.033-1.66L169.1,446.947s.785-1.348-.964-1.348H155.129s-1.239-.026-.873.719a2.317,2.317,0,0,0,.611.5l2.815,1.557Z" transform="translate(-77.387 -445.592)" fill="#b8b8b8"/>
      <path id="Path_258" data-name="Path 258" d="M68.737,445.6H61.424a2.144,2.144,0,0,0-1.887.9l-4.309,8.059H45.585l3.966-7.448s.876-1.516-.874-1.516H35.67s-1.2-.014-.838.744a1.872,1.872,0,0,0,.577.478c.354.2,2.85,1.491,2.85,1.491L25.786,472.162s-.95,1.555.535,1.555h7.915s1.107.114,2.033-1.66l6.6-12.378H52.5l-6.826,12.779s-.776,1.258.708,1.258H54.3s1.107.114,2.032-1.66L69.7,446.944s.785-1.348-.963-1.348Z" transform="translate(-25.487 -445.589)" fill="#b8b8b8"/>
      <path id="Path_259" data-name="Path 259" d="M354.976,456.255a3.629,3.629,0,0,0-2.762-1.711h-14.6l4.049-7.609s.789-1.348-.961-1.348H327.695s-1.238-.038-.876.721a1.46,1.46,0,0,0,.613.5c.382.148,3.033,1.5,3.033,1.5L317.81,472.156s-.852,1.56.535,1.555h7.915s1.107.114,2.032-1.66l6.591-12.376h9.81l-6.612,12.481s-.95,1.555.535,1.555h7.915s1.107.114,2.032-1.66l6.6-12.372s.741-2.061-.185-3.423Z" transform="translate(-152.579 -445.587)" fill="#b8b8b8"/>
      <path id="Path_260" data-name="Path 260" d="M219.283,462.413H206.3l1.335-2.511h12.985Zm5.418-7.651h-34.17l3.752-7,.665-.682s1.087-1.281-.8-1.281l-7.494,0a2.151,2.151,0,0,0-1.887.906L173.279,468.22c-2.721,5.508,2.665,5.713,2.665,5.713h10.374a1.9,1.9,0,0,0,1.485-.953l1.656-3.124c.441-.83-.244-1.01-.628-1.008-.441,0-5.777-.014-5.777-.014l3.771-7.028a.568.568,0,0,0-.058-.658l-1.581-1.272,12.777.007-4.507,8.337c-2.719,5.508,2.665,5.713,2.665,5.713H219.8a1.9,1.9,0,0,0,1.486-.953s1.478-2.819,1.623-3.152c.343-.789-.577-.98-.577-.98l-19.45-.02,1-1.872,16.757-.05c3.874,0,5.041-2.575,5.041-2.575l2.827-5.23C229.617,456.886,228.28,454.762,224.7,454.762Z" transform="translate(-89.465 -445.679)" fill="#b8b8b8"/>
      <path id="Path_261" data-name="Path 261" d="M293.392,461.485l-12.9-.021s-4.212-.229-5.967,2.886l-5.6,10.565c-2.719,5.505,2.666,5.712,2.666,5.712h19.6a1.9,1.9,0,0,0,1.488-.953s1.52-2.8,1.673-3.129c.194-.421-.027-1-.779-1H278.6l4.741-8.962h15.3a1.971,1.971,0,0,0,1.513-.944l1.767-3.324c.2-.372-.138-.856-.705-.856S293.392,461.485,293.392,461.485Z" transform="translate(-131.085 -452.495)" fill="#b8b8b8"/>
      <path id="Path_262" data-name="Path 262" d="M109.389,475.533H96.99l1.3-2.521H110.73ZM97.231,461.467a1.932,1.932,0,0,0-1.877.943L93.79,465.37s-.733,1.219.538,1.219h19.83l-1.358,2.531H95.745s-3.609-.1-5.317,2.724l-2.011,3.71c-2.395,4.952,2.354,5.073,2.354,5.073h24.061a2.145,2.145,0,0,0,1.923-.918l6.662-12.632c2.382-4.573-1.284-5.609-2.662-5.609Z" transform="translate(-52.577 -452.497)" fill="#b8b8b8"/>
    </g>
  </g>
</svg>
