<?xml version="1.0" encoding="utf-8"?>
<!-- Generator: Adobe Illustrator 19.2.1, SVG Export Plug-In . SVG Version: 6.00 Build 0)  -->
<svg version="1.1" xmlns="http://www.w3.org/2000/svg" xmlns:xlink="http://www.w3.org/1999/xlink" x="0px" y="0px"
	 viewBox="0 0 132 64" enable-background="new 0 0 132 64" xml:space="preserve">
<g id="bg" display="none">
	<rect display="inline" fill-rule="evenodd" clip-rule="evenodd" fill="#333333" width="132" height="64"/>
</g>
<g id="logo">
	<g>
		<path fill-rule="evenodd" clip-rule="evenodd" fill="#b8b8b8" d="M107.954,19.883l3.315-11.064
			c0.422-1.428,1.062-1.951,2.328-2.472L131.875,0L107.954,19.883z"/>
		<path fill-rule="evenodd" clip-rule="evenodd" fill="#b8b8b8" d="M88.779,38.363c0.456,0.39,1.069,0.585,1.839,0.585h6.739
			c0.727,0,1.451-0.194,2.172-0.585c0.72-0.389,1.37-0.861,1.95-1.415c0.579-0.554,1.086-1.148,1.52-1.784
			c0.433-0.635,0.734-1.22,0.901-1.754l3.165-10.564l11.226-6.614l-4.854,16.44c-0.461,1.477-0.954,2.779-1.477,3.907
			c-0.524,1.129-1.045,2.041-1.561,2.738c-0.462,0.657-1.052,1.344-1.767,2.061c-0.717,0.718-1.47,1.384-2.261,2
			c-0.834,0.615-1.747,1.138-2.736,1.569c-0.991,0.431-1.916,0.79-2.775,1.077c-0.847,0.246-1.771,0.461-2.769,0.646
			c-0.999,0.185-2.055,0.277-3.167,0.277h-7.509c-1.412,0-2.683-0.143-3.813-0.431c-1.13-0.287-2.04-0.697-2.728-1.231
			c-0.732-0.533-1.323-1.108-1.772-1.723c-0.57-0.779-1.005-1.579-1.304-2.4c-0.275-0.902-0.415-1.856-0.422-2.861
			c-0.007-1.005,0.169-2.081,0.528-3.23l6.192-19.824l8.304-7.412l-13.91,7.123H64.418h-0.564c-1.771,0.329-3.272,1.159-4.501,2.492
			c-1.23,1.333-2.177,3.067-2.843,5.199l-3.573,11.437c-0.32,1.436-0.194,2.575,0.377,3.415c0.572,0.841,1.586,1.323,3.046,1.446
			h16.623c0.427,0,0.578,0.206,0.45,0.615l-2.114,6.768c-0.128,0.411-0.407,0.615-0.834,0.615h-16.43
			c-1.284,0-2.383-0.112-3.296-0.338c-0.915-0.225-1.69-0.482-2.327-0.769c-1.447-0.574-2.61-1.507-3.49-2.8
			c-0.88-1.292-1.445-2.84-1.694-4.645c-0.074-0.451-0.098-1.056-0.075-1.815c0.022-0.759,0.208-1.692,0.554-2.8l4.091-13.099
			c0.551-1.763,2.138-4.674,2.327-4.984c0.188-0.31,0.261-0.429,0.477-0.738c0.215-0.31,7.95-7.123,7.95-7.123l-13.91,7.123H26.375
			c-0.428,0-0.712,0.226-0.853,0.677l-1.969,6.303c-0.128,0.411,0.021,0.615,0.45,0.615h19.703c0.427,0,0.578,0.206,0.45,0.615
			l-2.21,7.076c-0.128,0.411-0.407,0.615-0.834,0.615H21.408c-0.428,0-0.706,0.206-0.834,0.615l-2.142,6.857
			c-0.128,0.411,0.021,0.615,0.45,0.615h21.244c0.427,0,0.578,0.206,0.45,0.615l-2.114,6.768c-0.128,0.411-0.407,0.615-0.834,0.615
			H12.789c-0.77,0-1.48-0.194-2.128-0.584c-0.648-0.389-1.176-0.892-1.583-1.507c-0.408-0.615-0.674-1.302-0.8-2.061
			c-0.127-0.759-0.068-1.528,0.175-2.307l7.532-24.112c0.871-2.789,2.37-5.055,4.498-6.799c2.127-1.743,4.689-2.615,7.684-2.615
			h67.18c0.427,0,0.578,0.206,0.45,0.615l-8.089,25.897c-0.154,0.492-0.234,1.057-0.24,1.692c-0.006,0.637,0.097,1.231,0.309,1.784
			C87.99,37.501,88.323,37.974,88.779,38.363z"/>
		<path fill="#b8b8b8" d="M28.32,49.438h-5.164l-10.909,12.61l-1.556-12.61H5.528L0.125,64h3.635l4.283-11.522L9.385,64h4.259
			l9.907-11.522L19.267,64h3.65L28.32,49.438z"/>
		<path fill="#b8b8b8" d="M39.404,49.438h-3.947L24.446,64h2.107l2.738-3.638h6.336L35.664,64h3.962L39.404,49.438z M30.425,58.9
			l5.078-6.721l0.086,6.721H30.425z"/>
		<path fill="#b8b8b8" d="M58.52,57.45c0.151-0.434-0.045-0.786-0.588-1.056c-0.534-0.27-1.171-0.405-1.913-0.405h-8.206
			c-0.198,0-0.277-0.06-0.239-0.181l1.767-4.737c0.039-0.121,0.157-0.181,0.355-0.181h11.248l0.54-1.451H49.331
			c-0.752,0-1.479,0.128-2.181,0.384c-0.762,0.27-1.229,0.626-1.401,1.067l-1.884,5.1c-0.172,0.441,0.029,0.8,0.601,1.077
			c0.515,0.256,1.148,0.384,1.9,0.384h8.206c0.208,0,0.282,0.061,0.224,0.181l-1.752,4.726c-0.059,0.121-0.182,0.181-0.37,0.181
			H41.428L40.887,64H53.04c0.762,0,1.503-0.132,2.226-0.395c0.732-0.263,1.184-0.619,1.357-1.067L58.52,57.45z"/>
		<path fill="#b8b8b8" d="M77.792,49.438H62.597l-0.54,1.451h5.772L62.967,64h3.65l4.863-13.111h5.772L77.792,49.438z"/>
		<path fill="#b8b8b8" d="M87.086,62.538H77.96l1.898-5.089h9.126l0.541-1.461h-9.126l1.884-5.1h9.126l0.54-1.451H79.187L73.784,64
			h12.761L87.086,62.538z"/>
		<path fill="#b8b8b8" d="M105.43,58.175c0.161-0.434-0.03-0.786-0.573-1.056c-0.553-0.27-1.196-0.405-1.928-0.405
			c0.762,0,1.504-0.132,2.226-0.395c0.732-0.263,1.184-0.615,1.356-1.056l1.621-4.374c0.171-0.427-0.021-0.775-0.574-1.045
			c-0.553-0.27-1.196-0.405-1.928-0.405H93.476L88.074,64h3.635l2.438-6.55h7.597c0.217,0,0.297,0.061,0.239,0.181L99.618,64h3.65
			L105.43,58.175z M102.286,55.988h-7.597l1.884-5.1h7.597c0.208,0,0.292,0.061,0.253,0.181l-1.767,4.737
			C102.617,55.928,102.493,55.988,102.286,55.988L102.286,55.988z"/>
		<path fill-rule="evenodd" clip-rule="evenodd" fill="#b8b8b8" d="M107.954,19.883l3.315-11.064
			c0.422-1.428,1.062-1.951,2.328-2.472L131.875,0L107.954,19.883z"/>
	</g>
</g>
</svg>
